<svg xmlns="http://www.w3.org/2000/svg" viewBox="0 0 243.8 110.2" fill="#2E2E2E">
  <path d="M0,6.5c0-.7.4-1.8.5-2.5.1-.7,0-1.5,0-2.3h37.9l-.7,8.4h-13.4v41h-10.3V10.1H0v-1.7l.2-.5s-.2-.2-.2-.5v-1h0Z"/>
  <path d="M88.2,110.2l-2.6-1.1c.5-.4,1.1-2.7,1.4-2.9s1.9.4,2.5.4c2.8,0,3.4-2.8,3.9-5l3.9-22.1h-4.3l.8-3.6c.8-.2,3.8.3,4.2-.3s.8-4.6,1.1-5.6c1.8-5.9,6.5-7.1,11.9-4.8l-1.5,3.2c-5.9-2.9-7.2,2.9-7.4,7.4h6l-.9,3.5-5.8.2c-1.5,7.2-2.4,14.5-3.9,21.7s-1.7,8.1-6.6,8.6c-.7,0-1.4,0-2.2.2h-.5v.2Z"/>
  <path d="M90.9,109.9v.2h-2.2c.5-.5,1.5-.2,2.2-.2Z"/>
  <path d="M225.4,110.2h-1.9c.4-.4,1.5-.4,1.9,0Z"/>
  <path d="M.2,7.9c0,.2-.1.2-.2,0v-.5c.2,0,.2.3.2.5Z"/>
  <path d="M0,8.4v-.5h.2c0,.2,0,.4-.2.5Z"/>
  <path d="M198.8,43.3h17.5l-.2,7.7h-30.2c0-2.2-.6-4.3-.3-6.5l15.9-20.4h-13.9l.2-7.9h26.3c.1,0,.4.4.4.6-.2,2,.7,4.1.3,6.1l-15.9,20.4h-.1Z"/>
  <path d="M233.5,5v11.3h8.3s.4.3.3.5l-.7,7.4h-7.9c.2,4.6-.3,9.4,0,14s.2,3.7.7,4.6c1.2,2.4,5.8,1.1,7.7.3l1.6,5.7c0,.8-2.7,1.7-3.4,2-8.3,3-15.6,1.6-16.2-8.3s.3-12.3,0-18.3h-6l.5-7.3c0-.2.2-.6.4-.6h5.4c0-2.7,0-5.5.6-8.1l8.8-3.1h-.1Z"/>
  <path d="M169.9,16.3c.7.2.5,4.9,1,5.7,3.6-3.7,8.2-6,13.5-6l-.8,8.1c-3.9,0-7.8,1.7-10.4,4.6s-1.8,2.4-1.8,2.5v19.8h-9.8V16.6s.3-.4.4-.4h7.9Z"/>
  <path d="M106.3,16.3c.7.2.4,4.9,1,5.7,3.6-3.8,8.3-5.9,13.5-6l-.7,8.1c-4,0-7.9,1.7-10.5,4.7s-1.7,2.2-1.7,2.4v19.8h-9.8V16.6s.3-.4.4-.4h7.9-.1Z"/>
  <path d="M60.9,98.9h-4.3l2.9-16.9c0-6-7.2-2.2-9.6.2s-1.7,5.2-2.1,7.3c-.6,3.1-1.1,6.2-1.5,9.4h-4.3l2.9-16.9c0-6.5-8.8-1.6-10.5,1.5l-2.7,15.4h-4.3l4.1-23h3.4v3.1c3.1-3,8.3-5.3,12.4-2.9s1.5,1.9,2.1,3.2c3.7-4.8,14.8-6.6,14.5,1.8l-2.9,17.8h0Z"/>
  <rect x="43.6" y="16.3" width="9.6" height="34.7"/>
  <path d="M28.3,66.1c-.1.7-.5,3.4-1.1,3.6h-15l-1.7,9.9h12.5c.1.5-.7,3.6-.9,3.6h-12.3l-1.9,12.2h15.8c-.4,1.2-.4,2.6-1.1,3.6H2.9l5.8-32.8h19.7-.1Z"/>
  <path d="M129.5,98.9l6-33.9,4.2-.9-2.5,14.6c.2.2,2.4-1.6,2.8-1.9,2.8-1.7,6.3-2.5,9.3-1s2.7,3.9,2.4,6.6c-.5,5.4-2.2,11-2.8,16.4h-4.1c.3-5.1,2.2-10.5,2.6-15.5s.4-3.7-1.4-4.3c-3.2-1.2-7.6,1.8-9.6,4.2l-2.7,15.6h-4.3.1Z"/>
  <path d="M211.7,98.9h-4.3l2.8-16c.9-7.7-8.7-2.9-11.1.4l-2.8,15.6h-4.1l3.8-23h3.6c-.3,1-.3,2.1-.2,3.1,3.4-2.7,7.4-4.9,11.9-3.4s3.4,3.3,3.2,6.2c-.3,5.5-2.5,11.5-2.9,17.1h.1Z"/>
  <path d="M174.8,75.9l-2.8,16c-1,7.1,8,3.5,10.3.3l2.8-16.2h4.3l-4.1,23h-3.6v-2.6c-3.8,3.3-12.2,5.8-14.1-.6,0-6.7,2.1-13.2,2.9-19.7h4.3v-.2Z"/>
  <path d="M155.6,98.9l6-33.6c.4-.7,3.3-.7,4.1-1.1l-5.9,34.7h-4.3,0Z"/>
  <path d="M47.4.3c8.2-1.3,9.1,10.8,1.6,11.4S40.5,1.4,47.4.3Z"/>
  <path d="M222.1,79.5c-3.8,4.6-6.9,17.4.7,19.7,3.6,1.1,6.7,0,9.5-2.2-.5,3.9-1.5,9-6.1,9.6-2.5.3-5.5,0-7.7-1.4-.2,0-1.8,3.2-1.7,3.3l5.6,1.7h1c.6-.2,1.3-.2,1.9,0h.5l4.4-1.3c4.4-2.1,5.4-7.2,6.3-11.6,1.4-6.7,2.2-13.6,3.6-20.3-6-2.6-13.4-3-18,2.5ZM231.7,93.9c-2.8,2.9-8.6,3.8-9.2-1.3-.6-5.1,2.3-13.5,8.3-13.9.8,0,4.3.3,4.6,1-1.1,4-.8,11.2-3.7,14.2h0Z"/>
  <path d="M89.9,82c-.7-7.9-10.2-8.8-14.7-3.5v-2.6c-.8,0-3.3-.3-3.6.2l-5.9,34h.5l3.8-1,1.7-10.7c11.5,5,19.2-5.7,18.2-16.4ZM80.6,95.2c-2.4,1.4-6.4,1.6-8.1-.7,1.4-5.5.8-15.3,8.6-15.9,7.7-.5,4.6,13.7-.4,16.6h0Z"/>
  <path d="M135.6,15.6c-3.7.5-7.4,1.7-10.7,3.5l2.5,6.5c4.7-2.8,16.6-5.8,16.4,2.9-5.8.4-13-.1-17.7,3.9-4,3.4-4.8,10.1-2.3,14.6,3,5.6,11.9,6.3,17,3.4,1.7-.9,2.7-2.2,4.1-3.5l.2,4.1h8.6v-25c0-9.5-10.7-11.3-18.1-10.4ZM143.9,39.4c0,.2-.9,2-1.1,2.3-2.6,3.7-10.7,4.9-10.7-1.1s7.4-6.1,11.7-6.1v4.9h.1Z"/>
  <path d="M91.6,29.1c0-5.7-4.3-11.5-9.8-13-9.4-2.6-18.6,1.2-21.4,10.8-2.6,9.1-1.1,21.2,9.3,24.2,6.5,1.9,15.9,1,21.5-2.9-.5-.8-1.9-6-2.4-6.1-6.5,3.6-19.4,4.8-19.5-5.6h22.3v-7.5h0ZM69.1,30.2c.7-4.6,2.6-8,7.8-7.7,4.7.3,5.6,3.7,6.1,7.7h-13.9Z"/>
  <path d="M118.9,75.3c-8.8.9-13.5,12-10.6,19.6,2.2,5.8,10.4,5.6,15.2,3.5,2.6-1.2,1.6-1.6.6-3.9-5,3.4-13.4,2.9-12.1-4.9,4.9-.8,14.8-1.2,15.4-7.6.5-5.4-3.8-7-8.4-6.5v-.2ZM112.2,86.5c.5-3.3,2.4-6.7,5.8-7.7,2-.6,5.1-.7,5.4,1.9.6,4.8-8.1,5.1-11.2,5.8Z"/>
</svg>
